<?xml version="1.0" encoding="UTF-8" standalone="no"?>
<!-- Created with Inkscape (http://www.inkscape.org/) -->

<svg
   xmlns:dc="http://purl.org/dc/elements/1.1/"
   xmlns:cc="http://creativecommons.org/ns#"
   xmlns:rdf="http://www.w3.org/1999/02/22-rdf-syntax-ns#"
   xmlns:svg="http://www.w3.org/2000/svg"
   xmlns="http://www.w3.org/2000/svg"
   xmlns:sodipodi="http://sodipodi.sourceforge.net/DTD/sodipodi-0.dtd"
   xmlns:inkscape="http://www.inkscape.org/namespaces/inkscape"
   width="416.755"
   height="154.95007"
   id="svg2"
   version="1.1"
   inkscape:version="0.48.2 r9819"
   sodipodi:docname="LOGO-FBSP.svg">
  <defs
     id="defs4" />
  <sodipodi:namedview
     id="base"
     pagecolor="#ffffff"
     bordercolor="#666666"
     borderopacity="1.0"
     inkscape:pageopacity="0.0"
     inkscape:pageshadow="2"
     inkscape:zoom="0.70710678"
     inkscape:cx="227.7078"
     inkscape:cy="99.480428"
     inkscape:document-units="px"
     inkscape:current-layer="layer1"
     showgrid="false"
     inkscape:window-width="1366"
     inkscape:window-height="724"
     inkscape:window-x="0"
     inkscape:window-y="0"
     inkscape:window-maximized="0"
     units="mm"
     fit-margin-top="0"
     fit-margin-left="0"
     fit-margin-right="0"
     fit-margin-bottom="0" />
  <metadata
     id="metadata7">
    <rdf:RDF>
      <cc:Work
         rdf:about="">
        <dc:format>image/svg+xml</dc:format>
        <dc:type
           rdf:resource="http://purl.org/dc/dcmitype/StillImage" />
        <dc:title></dc:title>
      </cc:Work>
    </rdf:RDF>
  </metadata>
  <g
     inkscape:label="Calque 1"
     inkscape:groupmode="layer"
     id="layer1"
     transform="translate(-90.939232,-658.30564)">
    <g
       transform="translate(321.01248,270.40839)"
       style="font-size:40px;font-style:normal;font-weight:normal;line-height:125%;letter-spacing:0px;word-spacing:0px;fill:#000000;fill-opacity:1;stroke:none;font-family:Sans"
       id="flowRoot3147">
      <path
         d="m 95.43075,438.67622 c -2.176018,4e-5 -3.968016,0.44804 -5.376,1.344 -1.408013,0.89604 -2.112012,2.26137 -2.112,4.096 -1.2e-5,1.79203 0.703987,3.1787 2.112,4.16 1.407984,0.9387 4.394648,1.96269 8.96,3.072 4.60797,1.10936 8.06397,2.66669 10.368,4.672 2.34663,2.00535 3.51996,4.97068 3.52,8.896 -4e-5,3.88268 -1.47204,7.04001 -4.416,9.472 -2.94403,2.432 -6.80536,3.648 -11.584,3.648 -6.997348,0 -13.205341,-2.41066 -18.624,-7.232 l 4.736,-5.696 c 4.522655,3.92534 9.215983,5.88801 14.08,5.888 2.431976,1e-5 4.35197,-0.51199 5.76,-1.536 1.45064,-1.06666 2.17597,-2.45332 2.176,-4.16 -3e-5,-1.74932 -0.6827,-3.09332 -2.048,-4.032 -1.32269,-0.98132 -3.62669,-1.85598 -6.912,-2.624 -3.28535,-0.81065 -5.781348,-1.53598 -7.488,-2.176 -1.706678,-0.68264 -3.221343,-1.55731 -4.544,-2.624 -2.645339,-2.00531 -3.968004,-5.0773 -3.968,-9.216 -4e-6,-4.13863 1.493327,-7.31729 4.48,-9.536 3.029321,-2.26129 6.762651,-3.39195 11.2,-3.392 2.858644,5e-5 5.69597,0.46938 8.512,1.408 2.81597,0.93871 5.24797,2.26138 7.296,3.968 l -4.032,5.696 c -1.3227,-1.19463 -3.1147,-2.17596 -5.376,-2.944 -2.261358,-0.76796 -4.501355,-1.15196 -6.72,-1.152"
         style="font-size:64px;font-variant:normal;font-stretch:normal;text-align:start;line-height:116.99999571%;letter-spacing:6px;text-anchor:start;fill:#000000;font-family:Montserrat;-inkscape-font-specification:Montserrat"
         id="path2992" />
      <path
         d="m 167.16175,432.78822 c 6.78397,5e-5 11.7333,1.30138 14.848,3.904 3.11463,2.60271 4.67196,6.61337 4.672,12.032 -4e-5,5.41869 -1.60004,9.38669 -4.8,11.904 -3.15737,2.51735 -8.02136,3.77601 -14.592,3.776 l -7.936,0 0,13.12 -7.552,0 0,-44.736 15.36,0 m 0.96,24.768 c 4.18131,2e-5 7.01864,-0.78931 8.512,-2.368 1.53597,-1.62131 2.30397,-3.96797 2.304,-7.04 -3e-5,-3.11463 -0.96003,-5.31196 -2.88,-6.592 -1.92003,-1.27996 -4.92803,-1.91996 -9.024,-1.92 l -7.68,0 0,17.92 8.768,0"
         style="font-size:64px;font-variant:normal;font-stretch:normal;text-align:start;line-height:116.99999571%;letter-spacing:6px;text-anchor:start;fill:#000000;font-family:Montserrat;-inkscape-font-specification:Montserrat"
         id="path2994" />
    </g>
    <path
       sodipodi:nodetypes="ccccccc"
       inkscape:connector-curvature="0"
       id="path3994"
       d="m 228.17594,659.79604 0,123.16502 72.5086,29.79801 73.5017,-29.79801 0,-124.15879 -72.5086,31.28817 z"
       style="fill:#000000;stroke:#000000;stroke-width:0.99326783px;stroke-linecap:butt;stroke-linejoin:miter;stroke-opacity:1" />
    <g
       transform="translate(9.012482,272.40839)"
       style="font-size:40px;font-style:normal;font-weight:normal;text-align:start;line-height:125%;letter-spacing:0px;word-spacing:0px;text-anchor:start;fill:#000000;fill-opacity:1;stroke:none;font-family:Sans"
       id="flowRoot3928">
      <path
         d="m 89.47875,439.82822 0,12.288 19.84,0 0,6.976 -19.84,0 0,18.432 -7.552,0 0,-44.736 29.824,0 -0.064,7.04 -22.208,0"
         style="font-size:64px;font-variant:normal;font-stretch:normal;line-height:116.99999571%;letter-spacing:6px;fill:#000000;font-family:Montserrat;-inkscape-font-specification:Montserrat"
         id="path2997" />
      <path
         d="m 169.76075,477.52422 -19.584,0 0,-44.736 17.408,0 c 3.02931,5e-5 5.63197,0.36271 7.808,1.088 2.21863,0.72538 3.8613,1.70671 4.928,2.944 2.04796,2.30404 3.07196,4.9067 3.072,7.808 -4e-5,3.4987 -1.10937,6.10136 -3.328,7.808 -0.8107,0.59736 -1.36537,0.98136 -1.664,1.152 -0.2987,0.12802 -0.83203,0.36269 -1.6,0.704 2.7733,0.59736 4.97063,1.85602 6.592,3.776 1.66396,1.87735 2.49596,4.22402 2.496,7.04 -4e-5,3.11468 -1.06671,5.86667 -3.2,8.256 -2.51737,2.77334 -6.8267,4.16 -12.928,4.16 m -12.032,-26.176 9.6,0 c 5.4613,3e-5 8.19197,-1.85597 8.192,-5.568 -3e-5,-2.1333 -0.66136,-3.6693 -1.984,-4.608 -1.32269,-0.93863 -3.37069,-1.40796 -6.144,-1.408 l -9.664,0 0,11.584 m 0,19.2 11.84,0 c 2.7733,10e-6 4.8853,-0.42666 6.336,-1.28 1.4933,-0.89599 2.23997,-2.55999 2.24,-4.992 -3e-5,-3.96798 -3.1787,-5.95198 -9.536,-5.952 l -10.88,0 0,12.224"
         style="font-size:64px;font-variant:normal;font-stretch:normal;line-height:116.99999571%;letter-spacing:6px;fill:#000000;font-family:Montserrat;-inkscape-font-specification:Montserrat"
         id="path2999" />
    </g>
  </g>
</svg>
